<svg width="73" height="73" viewBox="0 0 73 73" fill="none" xmlns="http://www.w3.org/2000/svg">
<path d="M71.0338 58.2559H67.315C67.1864 53.2625 64.0155 49.2518 60.1362 49.2518C56.2559 49.2518 53.0845 53.2625 52.9558 58.2559H52.0888C52.0116 55.2574 50.837 52.6129 49.0706 50.9788V20.0533C49.0706 20.0455 49.0706 20.0377 49.0706 20.0294C49.0706 19.7387 48.9721 19.4727 48.809 19.2701L42.3412 10.8904V4.30236C42.3412 2.34585 40.8869 0.754272 39.0986 0.754272H16.6351C14.8474 0.754272 13.3924 2.34585 13.3924 4.30236V10.8904L6.91048 19.2869C6.7501 19.4948 6.66252 19.7579 6.66252 20.0294V25.4662C6.66252 26.1014 7.13271 26.6168 7.71347 26.6168C8.29368 26.6168 8.76442 26.1014 8.76442 25.4662V21.1799H46.9687V49.6419C46.3157 49.3878 45.6244 49.2518 44.9084 49.2518C41.0292 49.2518 37.8583 53.2625 37.7296 58.2559H34.0113C33.4306 58.2559 32.9604 58.7707 32.9604 59.4065C32.9604 60.0423 33.4306 60.557 34.0113 60.557H35.6688L38.1194 70.1975H31.1382C31.1486 70.0975 31.1541 69.9962 31.1541 69.8931V67.2966C31.1541 66.5134 30.6155 65.8687 29.9017 65.7967C28.7867 65.6847 27.9459 64.6732 27.9459 63.4447C27.9459 62.2163 28.7867 61.2054 29.9022 61.0927C30.616 61.0208 31.1546 60.376 31.1546 59.5934V55.877C31.1546 55.1231 30.6445 54.4795 29.9685 54.3789C29.4851 54.307 29.12 53.8485 29.12 53.3122C29.12 52.7759 29.4851 52.3175 29.969 52.2456C30.6445 52.1455 31.1546 51.5013 31.1546 50.7475V48.9785C31.1546 47.5416 30.0867 46.3725 28.7741 46.3725H8.76442V30.0684C8.76442 29.4326 8.29368 28.9179 7.71347 28.9179C7.13271 28.9179 6.66252 29.4326 6.66252 30.0684V46.3725H5.32365C5.10854 46.3725 4.89725 46.3874 4.6898 46.4168C2.23977 46.7584 0.339844 49.0552 0.339844 51.8285V67.0432C0.339844 69.817 2.23977 72.1133 4.6898 72.4555C4.89725 72.4842 5.10854 72.4992 5.32365 72.4992H28.7741C28.7905 72.4992 28.8069 72.4992 28.8234 72.4986H40.2399C40.2557 72.4992 40.2711 72.4992 40.2864 72.4992H49.532C50.4631 72.4992 51.288 71.8131 51.5381 70.8309L52.5223 66.9575L53.507 70.8309C53.7572 71.8131 54.5821 72.4992 55.5131 72.4992H64.7588C65.6899 72.4992 66.5153 71.8131 66.7649 70.8309L69.3764 60.557H71.0338C71.6146 60.557 72.0848 60.0423 72.0848 59.4065C72.0848 58.7713 71.6146 58.2559 71.0338 58.2559ZM45.7557 18.8794H9.9774L14.9322 12.4616H40.802L45.7557 18.8794ZM16.6351 3.05535H39.0992C39.7281 3.05535 40.2399 3.61503 40.2399 4.30236V10.1605H15.4943V4.30236C15.4943 3.61503 16.0061 3.05535 16.6351 3.05535ZM60.1362 51.5529C62.8616 51.5529 65.0921 54.5317 65.212 58.2559H55.0588C55.1787 54.5317 57.4103 51.5529 60.1362 51.5529ZM44.9084 51.5529C45.7929 51.5529 46.6255 51.8663 47.3502 52.417C47.388 52.4511 47.4268 52.4817 47.4684 52.5098C48.9146 53.679 49.907 55.8063 49.9858 58.2559H39.8326C39.9525 54.5317 42.183 51.5529 44.9084 51.5529ZM5.32365 70.1982C3.73464 70.1982 2.44175 68.7828 2.44175 67.0432V51.8285C2.44175 50.0889 3.73464 48.6741 5.32365 48.6741H5.82285C5.24374 49.5652 4.90327 50.654 4.90327 51.8285V54.5371C4.90327 55.1723 5.37401 55.6876 5.95422 55.6876C6.53498 55.6876 7.00517 55.1723 7.00517 54.5371V51.8285C7.00517 50.0889 8.29806 48.6741 9.88708 48.6741H28.7741C28.9274 48.6741 29.0522 48.8108 29.0522 48.9785V50.1369C27.8578 50.6127 27.0181 51.8735 27.0181 53.3122C27.0181 54.7516 27.8573 56.0124 29.0522 56.4882V58.9241C27.1834 59.4358 25.844 61.2677 25.844 63.4447C25.844 65.6224 27.1834 67.4542 29.0522 67.9666V69.8937C29.0522 70.0555 28.9367 70.188 28.7905 70.1975H28.7741C28.7632 70.1975 28.7522 70.1975 28.7418 70.1982H9.88708C8.29806 70.1982 7.00517 68.7828 7.00517 67.0432V59.1392C7.00517 58.5034 6.53498 57.9887 5.95422 57.9887C5.37401 57.9887 4.90327 58.5034 4.90327 59.1392V67.0432C4.90327 68.2183 5.24428 69.3071 5.8234 70.1982H5.32365ZM64.744 70.1982H55.5279L54.3018 65.3737C54.1305 64.6989 53.5634 64.2273 52.9235 64.2273H52.1211C51.4812 64.2273 50.9147 64.6983 50.7434 65.3731L49.5167 70.1982H44.2499C44.2395 70.1982 44.2286 70.1975 44.2176 70.1975H40.3012L37.8506 60.557H38.7795C38.7981 60.5576 38.8178 60.5576 38.837 60.557H50.9831C50.9924 60.5576 51.0017 60.5576 51.011 60.5576C51.0203 60.5576 51.0296 60.5576 51.0395 60.557H54.0057C54.0243 60.5576 54.044 60.5576 54.0632 60.557H66.2093C66.2186 60.5576 66.2279 60.5576 66.2372 60.5576C66.2465 60.5576 66.2558 60.5576 66.2657 60.557H67.1946L64.744 70.1982Z" fill="#E67F1E"/>
</svg>
