<svg width="73" height="73" viewBox="0 0 73 73" fill="none" xmlns="http://www.w3.org/2000/svg">
<path d="M71.5189 42.3576V39.1374C71.5172 37.4871 70.1798 36.1497 68.5295 36.148C68.1995 36.1476 67.932 35.8802 67.9315 35.5501V34.3544C67.9299 32.704 66.5925 31.3666 64.9421 31.365H63.3517C63.0753 31.3652 62.8363 31.173 62.7771 30.9031L62.2072 28.6581C62.0602 28.0373 61.668 27.5024 61.1201 27.1756C60.5762 26.8495 59.9256 26.7519 59.31 26.904C58.6817 27.0632 58.0155 26.9569 57.4679 26.6101C56.9202 26.2631 56.5396 25.7062 56.4151 25.0702L56.3613 24.812L71.2455 13.925C72.014 13.3653 72.5275 12.5225 72.6726 11.583C72.8176 10.6436 72.5823 9.68496 72.0184 8.91957C71.4586 8.15068 70.6155 7.63682 69.6756 7.49178C68.7358 7.34661 67.7767 7.58231 67.0112 8.14661L51.2974 19.6339C50.7912 19.4927 50.2691 19.4165 49.7436 19.4072H47.8542C47.58 19.4043 47.307 19.3701 47.0405 19.3053L57.8583 6.2683C58.6797 5.28487 58.9133 3.93752 58.4708 2.73506C58.0282 1.53246 56.977 0.658044 55.7139 0.441823C54.4509 0.225602 53.1685 0.700504 52.3511 1.6873L38.2487 18.6825C37.2766 18.9339 36.2434 18.7605 35.4067 18.2056C34.2363 17.4307 32.864 17.0169 31.4604 17.0156H30.9459C29.7487 17.012 28.6297 17.6107 27.9687 18.609C27.6932 19.017 27.2667 19.2983 26.7832 19.391C26.2998 19.4836 25.7994 19.3797 25.3927 19.1024C24.2892 18.4287 22.8709 18.5795 21.9339 19.4703L20.8573 20.5469C20.498 20.9114 20.1972 21.3294 19.9656 21.7859C19.5901 22.5229 18.835 22.9891 18.0078 22.9946C15.8626 22.9974 14.1243 24.7357 14.1216 26.8808C14.1222 26.9758 14.0675 27.0624 13.9815 27.1026L11.5554 28.3153C10.1949 29.0056 9.33573 30.3997 9.33082 31.9253L7.88566 32.8928C6.55162 33.7795 5.75021 35.2754 5.75105 36.8773V37.3438C4.43074 37.345 3.36085 38.4151 3.35945 39.7354V42.127H3.07568C2.28353 42.1271 1.55849 42.5718 1.19906 43.2776C0.839622 43.9834 0.906604 44.8313 1.37254 45.472L1.75734 46.4133C5.21141 54.806 11.2086 61.9053 18.9058 66.7134V68.569C18.9079 70.4747 20.452 72.0192 22.3576 72.0216H51.3266C53.2324 72.0193 54.7768 70.4749 54.7792 68.569V66.7129C62.4747 61.9054 68.4709 54.8078 71.9253 46.4173L72.3117 45.472C72.7498 44.8697 72.8372 44.0811 72.5418 43.3975C72.3372 42.939 71.974 42.5698 71.5189 42.3576ZM68.429 10.0721C68.679 9.88493 68.9939 9.80632 69.3024 9.85438C69.6151 9.90034 69.896 10.0699 70.0825 10.3249C70.236 10.5308 70.3202 10.7799 70.3232 11.0367C70.3205 11.4164 70.1382 11.7725 69.8316 11.9966L39.564 34.1356L38.4026 34.5225C38.1652 34.602 37.9083 34.602 37.6709 34.5225L35.9193 33.9386C35.884 33.927 35.8476 33.9265 35.8121 33.916L68.429 10.0721ZM47.8544 21.7987H48.3361L39.784 28.0507L45.4096 21.2711C46.1781 21.6176 47.0113 21.7976 47.8544 21.7987ZM54.1947 3.21108C54.3947 2.96725 54.684 2.81367 54.9981 2.7848C55.4777 2.74332 55.9355 2.99388 56.1592 3.42015C56.3828 3.84643 56.3289 4.36547 56.0221 4.73668L31.8851 33.825L30.3861 34.9208C30.3734 34.9091 30.3567 34.904 30.3444 34.8916C29.8871 34.4333 29.3129 34.109 28.6841 33.954L54.1947 3.21108ZM5.75105 39.7354C7.07136 39.7341 8.14126 38.6641 8.14266 37.3438V36.8773C8.1428 36.0745 8.54497 35.3252 9.2141 34.8815L10.6668 33.9087C11.3303 33.4619 11.7287 32.7148 11.73 31.9148C11.7376 31.2964 12.0859 30.7327 12.6355 30.4493L15.0406 29.2466C15.9406 28.8014 16.5111 27.885 16.5131 26.8806C16.5155 26.0561 17.1833 25.3884 18.0078 25.3859C19.7317 25.3768 21.3072 24.4089 22.0943 22.8752C22.2126 22.641 22.3655 22.426 22.5479 22.2376L23.6245 21.1609C23.7575 21.0535 23.9412 21.0338 24.094 21.1108C25.0273 21.7344 26.1703 21.9608 27.2707 21.7401C28.3712 21.5194 29.3385 20.8696 29.959 19.9344C30.1783 19.6038 30.5491 19.4057 30.9458 19.4072H31.4602C32.3929 19.4082 33.3049 19.6828 34.083 20.1973C34.7417 20.6341 35.481 20.9349 36.2574 21.0822L25.122 34.5016C24.923 34.5186 24.7232 34.4827 24.5424 34.3978C23.1767 33.7141 21.5268 33.9822 20.4477 35.0629L19.2547 36.2558C18.7912 36.7233 18.7929 37.4776 19.2584 37.9431C19.7239 38.4086 20.4781 38.4103 20.9457 37.9467L22.1386 36.7538C22.4916 36.401 23.0311 36.3144 23.4769 36.539C24.3178 36.9629 25.2935 37.0323 26.186 36.7317L27.4699 36.3037C27.8854 36.163 28.3446 36.2713 28.6534 36.5829C29.8508 37.7752 31.7218 37.9608 33.13 37.0266L34.1565 36.3429C34.4534 36.1454 34.8246 36.0956 35.163 36.2081L36.9147 36.7921C37.6431 37.0338 38.43 37.0338 39.1584 36.7921L40.9112 36.2081C41.2497 36.0973 41.6204 36.147 41.9177 36.3429L44.5481 38.0964C45.0974 38.4574 45.8351 38.3072 46.1997 37.7604C46.5643 37.2134 46.4191 36.4748 45.8747 36.1066L43.283 34.3785L54.297 26.3224C55.0058 28.1565 56.7689 29.3667 58.7352 29.3685C59.1221 29.3668 59.5076 29.3212 59.8843 29.2325L60.4542 31.4758C60.7727 32.8169 61.9729 33.7619 63.3514 33.757H64.9419C65.2719 33.7574 65.5394 34.0248 65.5398 34.3549V35.5507C65.5415 37.201 66.8789 38.5384 68.5292 38.5401C68.8592 38.5405 69.1267 38.808 69.1271 39.138V42.1274H5.75105V39.7354ZM69.7112 45.5117C66.3992 53.5381 60.6274 60.3075 53.2256 64.8467H49.996C49.3355 64.8467 48.8002 65.382 48.8002 66.0425C48.8002 66.7029 49.3357 67.2382 49.996 67.2382H52.3876V68.5689C52.387 69.1546 51.9123 69.6292 51.3266 69.6298H22.3576C21.7722 69.629 21.2978 69.1543 21.2973 68.5689V67.2382H35.6466C36.3071 67.2382 36.8424 66.7029 36.8424 66.0425C36.8424 65.382 36.3071 64.8467 35.6466 64.8467H20.4575C13.0521 60.31 7.27917 53.5382 3.9714 45.5082L3.56614 44.5184H70.1176L69.7112 45.5117Z" fill="#E67F1E"/>
</svg>
