<svg width="73" height="73" viewBox="0 0 73 73" fill="none" xmlns="http://www.w3.org/2000/svg">
<path d="M69.6508 26.0712C69.5213 24.1997 69.1158 22.3619 68.4496 20.6263L66.2385 21.6032C66.7789 23.0109 67.1188 24.4976 67.2468 26.0136H53.0096C53.1941 23.7939 53.8389 21.6464 54.8968 19.7277C56.2955 17.249 58.1724 15.8042 60.046 15.7656C60.0548 15.7656 60.0645 15.7656 60.0733 15.7646C60.0911 15.7638 60.1095 15.7646 60.1273 15.7646C61.9039 15.7646 63.7195 17.0549 65.1088 19.3038L67.1033 17.8901C65.4666 15.2397 63.2739 13.5959 60.9841 13.2648C60.3309 10.5967 59.0767 8.06485 57.4656 6.20332C55.4521 3.87706 53.0474 2.73522 50.6958 2.98793C48.251 3.25057 46.0474 5.02017 44.5304 7.80669C43.9835 6.36004 43.2324 5.01201 42.3033 3.8098C40.5704 1.60476 38.407 0.390381 36.2123 0.390381C32.5837 0.390381 29.2197 3.72748 27.6149 8.55777C26.8478 7.28179 25.9029 6.13907 24.8132 5.16927C22.805 3.41488 20.5462 2.66444 18.4522 3.05647C15.2171 3.6599 12.5731 6.94495 11.5519 11.6295L13.8807 12.2121C14.6799 8.54592 16.5887 6.0049 18.8629 5.58084C21.6895 5.05124 25.0509 7.92985 26.7808 12.3082C26.7369 12.672 26.7038 13.0359 26.6814 13.4001C26.4647 13.4269 26.2494 13.4653 26.0362 13.5152C24.6652 13.8646 23.4219 14.6423 22.4639 15.7496C22.3724 15.6375 22.2787 15.5286 22.1807 15.4237C21.6011 14.8053 20.9199 14.3071 20.1713 13.954C17.579 12.7209 14.4616 13.1512 11.8927 14.2103C9.78843 15.0791 7.87589 16.4076 6.27674 18.1112C4.62391 19.8823 3.49363 21.9358 3.00876 24.0494L5.3312 24.6611C5.71175 23.0017 6.62381 21.3633 7.96828 19.9228C9.33032 18.4722 10.9592 17.3411 12.7513 16.6014C14.6908 15.8019 17.2353 15.3554 19.198 16.2945C19.6789 16.5203 20.1167 16.8393 20.4893 17.2355C20.6768 17.4382 20.8456 17.6598 20.9931 17.8974C19.801 20.1636 19.1615 23.0724 19.2059 26.0136H3.32922C2.53666 26.0146 1.77683 26.3523 1.21642 26.9528C0.655997 27.5532 0.340754 28.3673 0.339844 29.2165V33.06C0.340754 33.9091 0.655997 34.7232 1.21642 35.3237C1.77683 35.9241 2.53666 36.2619 3.32922 36.2629H67.3018V45.231C67.3033 47.7639 66.6672 50.2503 65.4603 52.4282C64.2534 54.6062 62.5206 56.395 60.4443 57.6062C59.9457 56.4703 59.2451 55.4496 58.3817 54.6012C56.4123 52.6617 53.7078 51.6368 50.5613 51.6368C47.4237 51.6368 44.1884 52.674 41.6853 54.4824C38.9271 56.4751 37.4081 59.1043 37.4081 61.886C37.4081 64.6678 38.9271 67.297 41.6853 69.2897C44.1884 71.0981 47.4237 72.1353 50.5613 72.1353C53.7078 72.1353 56.4123 71.1104 58.3821 69.1709C59.3211 68.2449 60.068 67.118 60.5747 65.8631C61.0813 64.6082 61.3362 63.2533 61.3231 61.886C61.3226 61.2835 61.2732 60.6822 61.1754 60.0889C63.739 58.699 65.8925 56.5743 67.3963 53.9512C68.9001 51.3281 69.6953 48.3094 69.6933 45.231V36.1988C70.3681 36.0502 70.9744 35.6569 71.4101 35.0851C71.8457 34.5133 72.084 33.7981 72.0848 33.06V29.2165C72.0837 28.4708 71.8401 27.7488 71.3959 27.1747C70.9517 26.6007 70.3346 26.2105 69.6508 26.0712ZM50.5613 69.573C47.8882 69.573 45.1402 68.6954 43.0223 67.1652C40.944 65.6639 39.7996 63.7891 39.7996 61.886C39.7996 59.983 40.944 58.1082 43.0223 56.6069C45.1402 55.0767 47.8882 54.1991 50.5613 54.1991C55.4896 54.1991 58.9316 57.36 58.9316 61.886C58.9316 66.4121 55.4896 69.573 50.5613 69.573ZM50.935 5.53744C53.9504 5.21347 57.2402 8.71952 58.5419 13.4134C56.9309 13.8424 55.4039 14.9175 54.1101 16.5295C53.8663 16.1315 53.585 15.7612 53.2709 15.4245C52.5718 14.6817 51.7293 14.1121 50.8027 13.7558C49.317 13.1695 47.5891 13.0487 45.7439 13.3874C45.7076 12.8022 45.6439 12.2193 45.5531 11.6409C46.5959 8.1627 48.6883 5.77878 50.935 5.53744ZM36.2123 2.9527C39.2809 2.9527 42.2571 6.735 43.1442 11.7559C43.146 11.768 43.148 11.7802 43.1501 11.7924C43.2797 12.5392 43.3557 13.2955 43.3772 14.0547C43.3708 14.0573 43.3645 14.0594 43.3581 14.0618C43.3432 14.0669 43.3282 14.0725 43.3125 14.0778C41.079 14.9396 39.0494 16.3162 37.3668 18.1104L39.0576 19.9223C41.6745 17.1188 46.242 14.6905 49.9775 16.1589C50.5753 16.3811 51.1189 16.7446 51.5678 17.2224C52.0167 17.7002 52.3596 18.2801 52.5709 18.9192C51.4503 21.1062 50.7809 23.5255 50.6079 26.0136H38.4355C38.3865 25.681 38.3282 25.3471 38.2579 25.0136C38.0057 23.8209 37.6362 22.6601 37.1558 21.5507C37.1496 21.537 37.1435 21.5234 37.1372 21.5101C35.3753 17.4561 32.353 14.4191 29.2414 13.5802C29.2245 13.5756 29.2073 13.5716 29.19 13.5677C29.148 13.5565 29.1084 13.5471 29.0692 13.538C29.0943 13.1344 29.1336 12.7296 29.1904 12.3266L29.1936 12.3029C29.9357 7.05802 33.0161 2.9527 36.2123 2.9527ZM23.3792 18.6179C23.9829 17.6358 25.025 16.3866 26.562 16.0148C26.9592 15.9204 27.3668 15.8871 27.7727 15.9158C32.1644 16.2124 35.056 21.4568 35.9247 25.5769C35.9555 25.7226 35.9833 25.8683 36.0092 26.0136H21.598C21.546 23.2575 22.1863 20.5584 23.3792 18.6179ZM69.6933 33.06C69.6933 33.2298 69.6303 33.3928 69.5182 33.5129C69.4061 33.633 69.254 33.7005 69.0954 33.7005H3.32922C3.17065 33.7005 3.01858 33.633 2.90646 33.5129C2.79433 33.3928 2.73134 33.2298 2.73134 33.06V29.2165C2.73134 29.0466 2.79433 28.8836 2.90646 28.7635C3.01858 28.6434 3.17065 28.5759 3.32922 28.5759H69.0954C69.254 28.5759 69.4061 28.6434 69.5182 28.7635C69.6303 28.8836 69.6933 29.0466 69.6933 29.2165V33.06Z" fill="#E67F1E"/>
</svg>
