<svg width="73" height="73" viewBox="0 0 73 73" fill="none" xmlns="http://www.w3.org/2000/svg">
<path d="M66.2989 19.1711C69.4891 19.1711 72.0848 16.5754 72.0848 13.3852C72.0848 12.1275 71.665 10.911 70.9056 9.91371C71.665 8.91644 72.0848 7.69993 72.0848 6.44218C72.0848 3.25203 69.4891 0.656296 66.2989 0.656296C65.0412 0.656296 63.8247 1.07611 62.8274 1.83551C61.8301 1.07611 60.6136 0.656296 59.3559 0.656296C56.1657 0.656296 53.57 3.25203 53.57 6.44218C53.57 8.8119 55.0051 10.8477 57.0483 11.7421L52.9914 15.799L52.7705 15.5781C51.3562 14.1638 49.4769 13.3852 47.4761 13.3852C45.1341 13.3852 42.8949 14.504 41.488 16.3799L41.4428 16.4415C40.5387 14.23 38.6329 12.5394 36.6022 11.7003C36.5824 9.5826 35.7552 7.5728 34.2613 6.08C32.4871 4.30581 30.0309 3.47296 27.5544 3.7809C26.022 1.81121 23.6896 0.656296 21.169 0.656296C18.6484 0.656296 16.316 1.81121 14.7836 3.77977C12.3122 3.47635 9.85208 4.30581 8.0779 6.08C6.58396 7.5728 5.75563 9.5826 5.73699 11.7003C2.9305 12.8586 0.339844 15.6244 0.339844 19.1711C0.339844 21.5606 1.76654 23.4975 2.90055 24.6598C2.23777 27.4007 3.01977 30.257 5.02618 32.2611C5.76693 33.003 6.63143 33.5816 7.59762 33.9816C8.79435 34.4794 9.59726 35.7406 9.59726 37.1237V44.629H3.81137C1.89762 44.629 0.339844 46.1868 0.339844 48.1005C0.339844 49.7103 1.4473 51.0562 2.93558 51.4461L7.54677 65.2802C8.96669 69.5394 12.9371 72.4012 17.4268 72.4012H54.9989C59.4892 72.4012 63.4591 69.5394 64.8779 65.2813L69.4891 51.4472C70.9773 51.0562 72.0848 49.7103 72.0848 48.1005C72.0848 46.1868 70.527 44.629 68.6133 44.629H66.2402C65.7734 38.5493 61.6843 33.4782 56.1262 31.5678L56.4951 31.2729C58.3134 29.8185 59.3559 27.6488 59.3559 25.3203C59.3559 23.3139 58.5422 21.3487 57.1223 19.93L56.9421 19.7497L60.999 15.6928C61.8934 17.736 63.9292 19.1711 66.2989 19.1711ZM8.48415 31.8447C7.7999 31.561 7.18798 31.1514 6.66363 30.6259C5.10755 29.071 4.58546 26.7933 5.30079 24.6807L5.54375 23.962L4.98268 23.4529C4.11197 22.6658 2.6542 21.0617 2.6542 19.1711C2.6542 16.4285 5.02279 14.2633 7.25183 13.618L8.17847 13.3496L8.08016 12.3902C7.9033 10.6347 8.49884 8.93 9.71422 7.71632C11.1121 6.31957 13.1083 5.74324 15.0594 6.17379L15.8515 6.34838L16.2855 5.66357C17.3562 3.97753 19.1824 2.97065 21.169 2.97065C23.1557 2.97065 24.9818 3.97753 26.0537 5.66357L26.4876 6.34838L27.2798 6.17379C29.2308 5.74211 31.2282 6.31957 32.625 7.71632C33.8403 8.93113 34.4347 10.6347 34.2579 12.3902L34.1607 13.3496L35.0873 13.618C37.3153 14.2633 39.6838 16.4285 39.6838 19.1711C39.6838 21.0617 38.2261 22.6658 37.3554 23.4529L36.7943 23.962L37.0373 24.6807C37.7526 26.7922 37.2305 29.071 35.6733 30.6271C35.1501 31.1514 34.5381 31.561 33.855 31.8447C31.926 32.6442 30.6428 34.4851 30.4637 36.6147C30.071 36.5632 29.6744 36.5288 29.2693 36.5288C28.4686 36.5288 27.6968 36.6412 26.9549 36.8333V30.8853L27.9742 26.8075L35.7275 21.2691L34.3828 19.3864L28.8387 23.3461L30.3908 17.137L28.1465 16.5765L24.675 30.4626L24.6451 37.7786C23.7715 38.2854 22.9895 38.9301 22.3262 39.6833V15.6996H20.0118V44.629H17.6975V30.7429L14.1915 16.5765L11.9472 17.137L13.4993 23.3461L7.95529 19.3864L6.61052 21.2691L14.3638 26.8075L15.3831 30.8853V44.629H11.9116V37.1237C11.9116 34.7789 10.5657 32.7081 8.48415 31.8447ZM29.2693 38.8431C32.7024 38.8431 35.5541 41.3507 36.1084 44.629H22.4302C22.9845 41.3507 25.8362 38.8431 29.2693 38.8431ZM10.1273 65.4582H11.9116V67.9031C11.1771 67.2182 10.5714 66.3933 10.1273 65.4582ZM55.8843 65.4582H58.1987V69.4043C57.4698 69.7179 56.6957 69.927 55.8843 70.0163V65.4582ZM53.57 70.0869H51.2556V65.4582H53.57V70.0869ZM48.9413 70.0869H46.6269V65.4582H48.9413V70.0869ZM44.3126 70.0869H41.9982V65.4582H44.3126V70.0869ZM39.6838 70.0869H37.3695V65.4582H39.6838V70.0869ZM35.0551 70.0869H32.7408V65.4582H35.0551V70.0869ZM30.4264 70.0869H28.1121V65.4582H30.4264V70.0869ZM25.7977 70.0869H23.4834V65.4582H25.7977V70.0869ZM21.169 70.0869H18.8547V65.4582H21.169V70.0869ZM16.5403 70.0163C15.7289 69.927 14.9548 69.7191 14.226 69.4043V65.4582H16.5403V70.0163ZM60.513 67.9031V65.4582H62.2974C61.8533 66.3933 61.2476 67.2182 60.513 67.9031ZM63.1511 63.1438H9.2735L5.41662 51.5721H67.008L63.1511 63.1438ZM69.7704 48.1005C69.7704 48.739 69.2517 49.2577 68.6133 49.2577H3.81137C3.17289 49.2577 2.6542 48.739 2.6542 48.1005C2.6542 47.4621 3.17289 46.9434 3.81137 46.9434H68.6133C69.2517 46.9434 69.7704 47.4621 69.7704 48.1005ZM38.5854 44.629C38.764 42.6571 39.4002 40.8207 40.3783 39.211L45.4652 41.2479L51.25 38.9335L57.0392 41.2479L62.1341 39.211C63.1122 40.8218 63.7484 42.6582 63.9269 44.6301H38.5854V44.629ZM60.7051 37.2876L57.0381 38.7538L51.2488 36.4395L45.4641 38.7538L41.805 37.2893C44.138 34.6981 47.5038 33.0572 51.2556 33.0572C55.0074 33.0572 58.3733 34.6981 60.7051 37.2876ZM55.0486 29.4654L54.4265 29.9632L48.6011 24.1377L46.9648 25.774L51.9687 30.7774C51.7314 30.7672 51.4963 30.7429 51.2556 30.7429C50.3216 30.7429 49.4108 30.8401 48.5237 31.0034L46.2879 28.7676L44.6516 30.4039L45.9687 31.721C45.1042 32.047 44.2792 32.4487 43.4989 32.9216L41.6592 31.0819L40.0229 32.7182L41.5852 34.2805C39.5426 35.9999 37.9735 38.2555 37.0712 40.8241C36.0422 39.2121 34.5319 37.9396 32.7408 37.2113V37.1249C32.7408 35.7428 33.5437 34.4805 34.7416 33.9839C35.7066 33.5827 36.5711 33.0041 37.3107 32.2645C39.3171 30.2604 40.1003 27.403 39.4375 24.6621C40.502 23.5704 41.8095 21.7912 41.9671 19.5994L43.3396 17.771C44.3114 16.4748 45.8585 15.7019 47.4761 15.7019C48.8582 15.7019 50.1561 16.2398 51.133 17.2167L55.486 21.5702C56.4742 22.5556 57.0415 23.9224 57.0415 25.3203C57.0415 26.9425 56.3149 28.4528 55.0486 29.4654ZM54.6277 17.4354L60.852 11.211C62.1075 9.95552 62.8274 8.2175 62.8274 6.44218H60.513C60.513 7.6084 60.0407 8.74975 59.2157 9.57469L58.9208 9.86964C57.2138 9.65323 55.8843 8.20789 55.8843 6.44218C55.8843 4.52843 57.4421 2.97065 59.3559 2.97065C60.3554 2.97065 61.2792 3.39781 61.9561 4.1719L62.8274 5.16804L63.6987 4.1719C64.3756 3.39781 65.2994 2.97065 66.2989 2.97065C68.2127 2.97065 69.7704 4.52843 69.7704 6.44218C69.7704 7.44171 69.3433 8.36553 68.5692 9.04244L67.5731 9.91371L68.5692 10.785C69.3433 11.4619 69.7704 12.3857 69.7704 13.3852C69.7704 15.299 68.2127 16.8568 66.2989 16.8568C64.5332 16.8568 63.0879 15.5273 62.8715 13.8203L63.1664 13.5254C63.9913 12.7004 65.1327 12.2281 66.2989 12.2281V9.91371C64.5236 9.91371 62.7856 10.6336 61.5301 11.889L55.3057 18.1134L54.6277 17.4354Z" fill="#E67F1E"/>
</svg>
