<svg width="73" height="73" viewBox="0 0 73 73" fill="none" xmlns="http://www.w3.org/2000/svg">
<path d="M71.6135 46.6371C71.9358 43.7422 70.4454 40.3612 67.4085 38.2042C71.7328 34.6018 74.0573 28.774 69.9203 23.636C72.4197 18.5815 71.6358 11.9209 68.0777 7.74639C64.0434 2.85417 57.2764 0.859427 51.2909 0.968458C43.1629 1.08541 35.789 4.65528 27.7388 4.95878C19.4205 5.06831 4.13533 7.78717 5.49294 21.5417C5.66446 22.7335 6.00526 23.826 6.51507 24.8315C5.22696 27.0076 5.11374 28.8281 5.29563 30.4846C-1.53347 34.8244 -0.972374 42.6266 4.9432 47.4876C5.21828 49.0316 5.88237 50.5572 6.86246 51.95C3.2354 57.3124 6.08682 63.1469 10.7022 66.4694C14.1506 68.8981 18.1465 69.9653 21.6211 70.7749C32.5963 73.4066 44.8833 73.3008 55.674 70.7749C59.1487 69.9651 63.1446 68.8979 66.5928 66.4694C71.4242 62.9971 74.2686 56.7797 69.9783 51.3529C70.9053 49.8644 71.4777 48.2492 71.6135 46.6371ZM12.5446 27.6318C10.0929 26.163 7.91387 24.105 7.5627 21.1117C7.18378 18.4762 7.93321 15.6987 9.51839 13.8629C11.9053 11.0985 16.1401 7.8753 27.7973 7.48367C31.7928 7.34953 35.6928 6.39556 39.4645 5.47309C48.5792 2.88972 59.9524 1.81357 66.5935 9.53368C70.7345 14.3265 69.9413 22.45 65.1143 26.1252C55.4953 34.2911 37.2101 33.5622 25.4905 31.844C22.229 31.4364 19.4203 30.7667 16.904 29.7969C16.3518 29.5839 15.7605 29.9499 15.5835 30.614C15.4065 31.2781 15.7107 31.9891 16.263 32.2019C18.9188 33.2253 21.8661 33.9301 25.2731 34.3564C37.9251 36.1476 55.9537 36.8208 66.263 28.2393C67.1759 27.5224 67.9845 26.6734 68.6746 25.7228C69.6444 26.9991 70.074 28.3887 69.9499 29.8641C69.0788 36.8827 60.273 39.5938 55.2747 40.6479C44.7383 43.1131 32.7423 43.2184 22.021 40.6479C18.7169 39.8781 14.9268 38.8702 11.7642 36.6427C8.53088 34.2971 6.20481 30.5311 7.90224 26.8899C8.89943 28.0638 10.2852 29.0621 11.5741 29.8715C12.8286 30.5926 13.7553 28.4551 12.5446 27.6318ZM6.86147 45.9599C1.74368 42.2045 0.586885 36.6203 5.93674 32.948C8.4709 39.4873 16.3444 41.9926 21.6217 43.1274C32.5979 45.7592 44.8832 45.6535 55.6744 43.1274C58.6104 42.4432 61.9174 41.5718 64.953 39.854C63.4752 46.4833 55.3049 48.8809 50.3723 49.9652C39.8366 52.4306 27.8389 52.5354 17.1186 49.9653C13.8142 49.1952 10.024 48.1873 6.86147 45.9599ZM69.9494 57.5115C69.0761 64.5305 60.2742 67.2407 55.2744 68.2955C44.738 70.7607 32.7416 70.8659 22.0206 68.2956C17.0266 67.2453 8.20633 64.5256 7.34549 57.5115C7.23297 56.1744 7.57657 54.908 8.36384 53.732C11.9462 57.2798 17.0815 58.6902 21.1955 59.6465C29.2277 61.5479 37.7386 62.0334 45.9183 61.1876C46.4962 61.1294 46.9255 60.5187 46.877 59.8238C46.8286 59.1286 46.3204 58.6126 45.7429 58.6709C37.7493 59.4972 29.446 59.025 21.595 57.1669C17.0511 56.0893 10.7783 54.4558 7.91555 49.4343C10.8184 50.9807 13.9354 51.7964 16.7187 52.4451C27.6933 55.0765 39.9812 54.9711 50.7714 52.4451C56.338 51.3054 65.175 48.2943 66.9093 40.8351C71.4491 44.5782 69.5885 49.9573 65.1056 53.1618C60.5043 56.261 55.5251 57.0552 50.57 58.0238C49.9956 58.1204 49.5951 58.7587 49.6756 59.4493C49.756 60.1399 50.2858 60.6219 50.8611 60.525C56.6283 59.3959 63.8709 58.2294 68.5614 53.226C69.6106 54.5414 70.0782 55.9802 69.9494 57.5115Z" fill="#E67F1E"/>
</svg>
