<svg width="73" height="73" viewBox="0 0 73 73" fill="none" xmlns="http://www.w3.org/2000/svg">
<path d="M67.4657 51.1284C70.3598 51.1284 72.7147 48.0235 72.7147 44.2058C72.7147 42.3572 72.1685 40.617 71.1768 39.3103L61.2829 26.2573C60.01 24.5767 58.3159 23.6516 56.5142 23.6516C54.7125 23.6516 53.0184 24.5767 51.7455 26.2573L49.5549 29.147C49.4739 27.0541 48.7681 25.0773 47.575 23.6791L30.0831 3.16918C28.7559 1.61216 27.0467 0.754272 25.2704 0.754272C23.4942 0.754272 21.785 1.61216 20.4577 3.16918L2.96586 23.6791C1.69759 25.1659 0.969727 27.3045 0.969727 29.5423C0.969727 33.8699 3.63818 37.39 6.91877 37.39H18.3274V40.933C18.3274 43.5112 18.067 46.0788 17.5532 48.5654L15.1127 60.3667C14.9426 61.191 14.8558 62.0413 14.8558 62.8961C14.8558 65.4285 15.608 67.729 16.8277 69.4462H5.59843V72.4992H22.1368H28.4052H68.086V69.4462H65.3585C65.6154 68.7425 65.7716 67.964 65.7716 67.1321C65.7716 66.4482 65.6744 65.7781 65.4812 65.1385C64.1377 60.7117 63.4573 56.0498 63.4573 51.281V51.1284H67.4657ZM37.6661 16.1443L42.8306 22.1999C42.1814 23.1051 41.2777 23.6516 40.3137 23.6516C38.3998 23.6516 36.8422 21.5969 36.8422 19.0721C36.8422 17.9899 37.1454 16.9625 37.6661 16.1443ZM15.9679 12.5174C15.9795 12.6685 16.013 12.8135 16.013 12.9662C16.013 15.491 14.4555 17.5456 12.5415 17.5456C12.2869 17.5456 12.037 17.4876 11.7905 17.4159L15.9679 12.5174ZM6.49177 34.305C4.68773 34.0256 3.28408 31.9969 3.28408 29.5423C3.28408 28.1746 3.72844 26.8679 4.50374 25.9581L9.84064 19.701C10.6703 20.2811 11.5961 20.5986 12.5415 20.5986C15.7318 20.5986 18.3274 17.1747 18.3274 12.9662C18.3274 12.0213 18.1874 11.0886 17.9316 10.2154L21.9956 5.44975C23.802 3.32946 26.74 3.32946 28.5452 5.44975L35.928 14.1065C35.0347 15.4818 34.5278 17.2373 34.5278 19.0721C34.5278 23.2807 37.1234 26.7046 40.3137 26.7046C41.943 26.7046 43.4786 25.778 44.5629 24.2301L46.0371 25.9596C46.8124 26.8679 47.2568 28.1761 47.2568 29.5423C47.2568 32.1648 45.6529 34.3019 43.6707 34.337C39.9839 34.308 36.767 32.9494 33.3614 31.5084C31.8594 30.8734 30.3331 30.2338 28.7362 29.6873C28.7073 25.5124 26.1279 22.1251 22.9561 22.1251C20.0898 22.1251 17.7199 24.8972 17.2662 28.5119C11.1853 29.5118 7.63622 32.9891 6.49177 34.305ZM32.4669 34.337H32.2135V34.2317C32.298 34.2668 32.3824 34.3019 32.4669 34.337ZM26.3686 28.9836C24.5912 28.5287 22.7084 28.2311 20.6417 28.2311C20.3154 28.2311 20.0053 28.2494 19.6905 28.2631C20.1627 26.4741 21.4402 25.1781 22.9561 25.1781C24.6699 25.1781 26.0874 26.8267 26.3686 28.9836ZM10.6241 34.337C12.3783 33.1189 14.9426 31.8565 18.3274 31.4382V34.337H10.6241ZM28.4041 69.4462H22.1368C19.3978 69.4462 17.1702 66.5078 17.1702 62.8961C17.1702 62.313 17.2292 61.7329 17.3449 61.1712L19.7854 49.3683C20.3536 46.6222 20.6417 43.7845 20.6417 40.9345V31.284C24.0982 31.284 27.0826 32.1847 29.8991 33.2837V40.933C29.8991 43.7829 30.1873 46.6222 30.7555 49.3668L33.1959 61.1712C33.3117 61.7329 33.3707 62.313 33.3707 62.8961C33.3707 66.5078 31.1431 69.4462 28.4041 69.4462ZM33.7132 69.4462C34.9329 67.729 35.685 65.4285 35.685 62.8961C35.685 62.0413 35.5982 61.191 35.4281 60.3697L32.9876 48.5669C32.4739 46.0803 32.2135 43.5127 32.2135 40.9345V37.39H43.3062L41.8505 39.3103C40.8599 40.617 40.3137 42.3572 40.3137 44.2058C40.3137 48.0235 42.6686 51.1284 45.5627 51.1284H49.5711V51.281C49.5711 56.0498 48.8907 60.7132 47.5461 65.1415C47.354 65.7796 47.2568 66.4482 47.2568 67.1321C47.2568 67.964 47.413 68.7425 47.6699 69.4462H33.7132ZM61.1429 51.1284V51.281C61.1429 56.4406 61.88 61.4841 63.3311 66.2711C63.4144 66.5474 63.4573 66.8375 63.4573 67.1321C63.4573 68.4082 62.6704 69.4462 61.703 69.4462H51.3254C50.358 69.4462 49.5711 68.4082 49.5711 67.1321C49.5711 66.8375 49.614 66.5459 49.6961 66.2727C51.1484 61.4826 51.8855 56.439 51.8855 51.281V51.1284H56.5142V48.0754H45.5627C43.945 48.0754 42.6281 46.3383 42.6281 44.2058C42.6281 43.1723 42.9336 42.2015 43.4879 41.4688L53.3817 28.4158C55.055 26.21 57.9734 26.21 59.6467 28.4158L69.5405 41.4688C70.0948 42.2 70.4003 43.1723 70.4003 44.2058C70.4003 46.3383 69.0835 48.0754 67.4657 48.0754H58.8286V51.1284H61.1429Z" fill="#E67F1E"/>
</svg>
