<svg width="73" height="73" viewBox="0 0 73 73" fill="none" xmlns="http://www.w3.org/2000/svg">
<path d="M72.7147 6.99025C72.7148 5.79846 72.4071 4.63339 71.8304 3.6424C71.2538 2.65141 70.4342 1.87902 69.4752 1.42292C68.5162 0.966825 67.461 0.847503 66.4429 1.08005C65.4248 1.3126 64.4897 1.88657 63.7558 2.72936L51.3682 16.9456C51.1557 16.9193 50.9421 16.9065 50.7283 16.9071C50.0203 16.9059 49.3181 17.0545 48.657 17.3455C48.1849 16.4979 47.5519 15.7839 46.8055 15.2569C47.8484 13.8067 48.4173 11.9838 48.414 10.1032V4.94949C48.414 4.59712 48.292 4.25918 48.075 4.01001C47.858 3.76085 47.5637 3.62087 47.2568 3.62087H42.7681C41.8375 3.61773 40.9157 3.82668 40.056 4.23561C39.1963 4.64453 38.4158 5.2453 37.7598 6.00309C37.4163 6.39831 37.1088 6.83282 36.8422 7.29982C36.5756 6.83282 36.2681 6.39831 35.9246 6.00309C35.2686 5.2453 34.4881 4.64453 33.6284 4.23561C32.7687 3.82668 31.8468 3.61773 30.9163 3.62087H26.4276C26.1207 3.62087 25.8264 3.76085 25.6094 4.01001C25.3923 4.25918 25.2704 4.59712 25.2704 4.94949V10.1032C25.2658 11.9832 25.8331 13.806 26.8743 15.2569C26.1278 15.7839 25.4949 16.4979 25.0228 17.3455C23.8281 16.8218 22.5158 16.7686 21.292 17.1942C20.0681 17.6199 19.0021 18.5003 18.2614 19.6972C17.9025 19.611 17.5369 19.5665 17.1702 19.5643C15.82 19.5664 14.5128 20.1097 13.4742 21.1003C12.4356 22.091 11.7309 23.4668 11.4815 24.9904C10.3518 25.2359 9.31113 25.8617 8.49204 26.7882C7.67294 27.7147 7.11241 28.9 6.88174 30.1933H4.44126C3.52055 30.1933 2.63755 30.6132 1.98651 31.3607C1.33548 32.1082 0.969727 33.122 0.969727 34.1792V43.4795C0.978256 49.5863 3.02049 55.4582 6.67797 59.892C10.3354 64.3258 15.3312 66.9858 20.6417 67.3269V68.7233C20.6417 69.7804 21.0075 70.7943 21.6585 71.5417C22.3095 72.2892 23.1925 72.7092 24.1133 72.7092H49.5711C50.4918 72.7092 51.3748 72.2892 52.0259 71.5417C52.6769 70.7943 53.0427 69.7804 53.0427 68.7233V67.3269C58.3531 66.9858 63.3489 64.3258 67.0064 59.892C70.6639 55.4582 72.7061 49.5863 72.7147 43.4795V34.1792C72.7147 33.122 72.3489 32.1082 71.6979 31.3607C71.0468 30.6132 70.1638 30.1933 69.2431 30.1933H66.8026C66.572 28.9 66.0114 27.7147 65.1924 26.7882C64.3733 25.8617 63.3326 25.2359 62.2029 24.9904C62.0569 24.1208 61.7589 23.2941 61.3269 22.5604L71.1779 11.2511C71.6666 10.6928 72.054 10.0287 72.3178 9.29733C72.5816 8.56597 72.7165 7.78183 72.7147 6.99025ZM39.3961 7.88176C39.8379 7.37174 40.3634 6.96739 40.9422 6.69213C41.521 6.41686 42.1416 6.27614 42.7681 6.27811H46.0996V10.1032C46.0957 11.5538 45.5943 12.9442 44.704 13.9735C44.6011 14.0917 44.4819 14.1874 44.3708 14.2937C42.9208 14.0957 41.4617 14.5663 40.3137 15.6024C39.6294 15.0179 38.8378 14.6207 37.9994 14.4412V11.7534C38.0034 10.3022 38.5052 8.91119 39.3961 7.88176ZM28.9815 13.9748C28.0906 12.9454 27.5888 11.5544 27.5848 10.1032V6.27811H30.9163C31.5428 6.27614 32.1634 6.41686 32.7422 6.69213C33.321 6.96739 33.8465 7.37174 34.2883 7.88176C35.1792 8.91119 35.681 10.3022 35.685 11.7534V14.4412C34.8466 14.6207 34.055 15.0179 33.3707 15.6024C32.2227 14.5663 30.7636 14.0957 29.3136 14.2937C29.2048 14.1874 29.0891 14.0917 28.9815 13.9748ZM49.5711 70.0519H24.1133C23.8064 70.0519 23.512 69.912 23.295 69.6628C23.078 69.4136 22.9561 69.0757 22.9561 68.7233V67.3947H50.7283V68.7233C50.7283 69.0757 50.6064 69.4136 50.3894 69.6628C50.1724 69.912 49.878 70.0519 49.5711 70.0519ZM51.8855 64.7375H21.7989C16.8903 64.7308 12.1843 62.489 8.71337 58.5038C5.24243 54.5186 3.2899 49.1154 3.28408 43.4795V40.0437L4.30124 41.2116C5.56599 42.6637 7.28135 43.4795 9.06996 43.4795C10.8586 43.4795 12.5739 42.6637 13.8387 41.2116L15.1949 39.6544C16.0258 38.7008 17.1525 38.1651 18.3274 38.1651C19.5022 38.1651 20.629 38.7008 21.4599 39.6544L22.8161 41.2116C24.0808 42.6637 25.7962 43.4795 27.5848 43.4795C29.3734 43.4795 31.0888 42.6637 32.3535 41.2116L33.7097 39.6544C34.5406 38.7008 35.6674 38.1651 36.8422 38.1651C38.017 38.1651 39.1438 38.7008 39.9747 39.6544L41.3309 41.2116C42.5956 42.6637 44.311 43.4795 46.0996 43.4795C47.8882 43.4795 49.6036 42.6637 50.8683 41.2116L52.2245 39.6544C53.0554 38.7008 54.1822 38.1651 55.357 38.1651C56.5319 38.1651 57.6586 38.7008 58.4895 39.6544L59.8457 41.2116C61.1105 42.6637 62.8258 43.4795 64.6144 43.4795C66.403 43.4795 68.1184 42.6637 69.3831 41.2116L70.4003 40.0437V43.4795C70.3945 49.1154 68.442 54.5186 64.971 58.5038C61.5001 62.489 56.7941 64.7308 51.8855 64.7375ZM70.4003 34.1792V36.2864L67.7469 39.3329C66.916 40.2865 65.7893 40.8222 64.6144 40.8222C63.4396 40.8222 62.3128 40.2865 61.4819 39.3329L60.1257 37.7757C58.861 36.3236 57.1456 35.5078 55.357 35.5078C53.5684 35.5078 51.853 36.3236 50.5883 37.7757L49.2321 39.3329C48.4012 40.2865 47.2744 40.8222 46.0996 40.8222C44.9248 40.8222 43.798 40.2865 42.9671 39.3329L41.6109 37.7757C40.3462 36.3236 38.6308 35.5078 36.8422 35.5078C35.0536 35.5078 33.3382 36.3236 32.0735 37.7757L30.7173 39.3329C29.8864 40.2865 28.7596 40.8222 27.5848 40.8222C26.4099 40.8222 25.2832 40.2865 24.4523 39.3329L23.0961 37.7757C21.8313 36.3236 20.116 35.5078 18.3274 35.5078C16.5388 35.5078 14.8234 36.3236 13.5586 37.7757L12.2024 39.3329C11.3715 40.2865 10.2448 40.8222 9.06996 40.8222C7.89512 40.8222 6.76838 40.2865 5.93749 39.3329L3.28408 36.2864V34.1792C3.28408 33.8268 3.406 33.4888 3.62301 33.2397C3.84002 32.9905 4.13435 32.8505 4.44126 32.8505H69.2431C69.55 32.8505 69.8444 32.9905 70.0614 33.2397C70.2784 33.4888 70.4003 33.8268 70.4003 34.1792ZM64.4015 30.1933H9.28288C9.52136 29.4188 9.96241 28.7479 10.5457 28.2722C11.129 27.7966 11.8261 27.5395 12.5415 27.5361C12.8484 27.5361 13.1427 27.3961 13.3597 27.1469C13.5767 26.8977 13.6987 26.5598 13.6987 26.2074C13.6948 25.5619 13.8284 24.9251 14.0879 24.3525C14.3474 23.7798 14.7249 23.2887 15.1876 22.9219C15.6502 22.5551 16.184 22.3238 16.7423 22.248C17.3006 22.1723 17.8667 22.2544 18.391 22.4873C18.6616 22.6051 18.9608 22.6022 19.2296 22.4793C19.4984 22.3563 19.7174 22.1221 19.8433 21.823C20.0569 21.3069 20.365 20.85 20.7467 20.4833C21.1284 20.1167 21.5745 19.8491 22.0546 19.6988C22.5348 19.5486 23.0375 19.5192 23.5284 19.6127C24.0193 19.7062 24.4868 19.9204 24.899 20.2406C25.0459 20.3547 25.2137 20.4285 25.3894 20.4564C25.5651 20.4842 25.744 20.4653 25.9123 20.4011C26.0806 20.3369 26.2338 20.2291 26.3601 20.0861C26.4864 19.9431 26.5823 19.7686 26.6405 19.5763C26.8764 18.7989 27.3165 18.1248 27.9001 17.6467C28.4838 17.1686 29.1822 16.9102 29.8991 16.9071C30.3936 16.9074 30.8821 17.0309 31.331 17.269C31.7799 17.5071 32.1785 17.8541 32.4993 18.2862C32.6112 18.4227 32.7462 18.5315 32.8961 18.6058C33.0459 18.6801 33.2074 18.7185 33.3707 18.7185C33.5339 18.7185 33.6954 18.6801 33.8453 18.6058C33.9951 18.5315 34.1301 18.4227 34.242 18.2862C34.5695 17.8666 34.9703 17.531 35.4183 17.3012C35.8663 17.0714 36.3515 16.9526 36.8422 16.9526C37.3329 16.9526 37.8181 17.0714 38.2661 17.3012C38.7141 17.531 39.1149 17.8666 39.4424 18.2862C39.5542 18.4227 39.6893 18.5315 39.8391 18.6058C39.989 18.6801 40.1505 18.7185 40.3137 18.7185C40.477 18.7185 40.6385 18.6801 40.7883 18.6058C40.9382 18.5315 41.0732 18.4227 41.1851 18.2862C41.5059 17.8541 41.9044 17.5071 42.3533 17.269C42.8022 17.0309 43.2908 16.9074 43.7853 16.9071C44.5032 16.9109 45.2023 17.1706 45.7861 17.6505C46.3698 18.1303 46.8094 18.8065 47.0439 19.5856C47.1023 19.7769 47.1981 19.9504 47.324 20.0926C47.4498 20.2349 47.6024 20.3422 47.7699 20.4063C47.9374 20.4704 48.1155 20.4897 48.2906 20.4626C48.4656 20.4355 48.6329 20.3627 48.7796 20.2499C49.1914 19.9282 49.6589 19.7125 50.1501 19.6177C50.6413 19.5229 51.1445 19.5512 51.6253 19.7006C52.1061 19.85 52.553 20.1171 52.9355 20.4834C53.3179 20.8497 53.6269 21.3067 53.8411 21.823C53.967 22.1221 54.1859 22.3563 54.4548 22.4793C54.7236 22.6022 55.0228 22.6051 55.2934 22.4873C55.8177 22.2541 56.3838 22.1717 56.9423 22.2473C57.5007 22.3229 58.0346 22.5542 58.4973 22.9211C58.9601 23.2879 59.3376 23.7792 59.597 24.352C59.8565 24.9248 59.9899 25.5618 59.9857 26.2074C59.9857 26.5598 60.1076 26.8977 60.3246 27.1469C60.5417 27.3961 60.836 27.5361 61.1429 27.5361C61.8583 27.5395 62.5554 27.7966 63.1387 28.2722C63.722 28.7479 64.163 29.4188 64.4015 30.1933ZM69.5417 9.37247L59.6895 20.6817C58.7504 19.9575 57.6455 19.5687 56.5142 19.5643C56.1475 19.5665 55.7819 19.611 55.423 19.6972C54.9851 18.9916 54.4307 18.3917 53.7914 17.9314L65.3921 4.60804C65.9453 3.99259 66.687 3.65156 67.4573 3.65853C68.2276 3.6655 68.9646 4.01992 69.5092 4.64529C70.0539 5.27067 70.3626 6.11686 70.3687 7.00125C70.3747 7.88564 70.0777 8.73732 69.5417 9.37247Z" fill="#E67F1E"/>
</svg>
