<svg width="34" height="31" viewBox="0 0 34 31" fill="none" xmlns="http://www.w3.org/2000/svg">
<path d="M18.5245 0.904382L22.4617 8.5134C22.7097 8.9904 23.1859 9.32239 23.742 9.39871L32.5447 10.6198C33.9371 10.8144 34.4933 12.4477 33.485 13.3826L27.1151 19.3049C26.7149 19.6789 26.5309 20.2131 26.6269 20.7397L28.1314 29.1005C28.3674 30.4246 26.911 31.432 25.6666 30.81L17.7922 26.8605C17.2961 26.6125 16.7039 26.6125 16.2118 26.8605L8.33337 30.81C7.08499 31.4359 5.62855 30.4246 5.86863 29.1005L7.37308 20.7397C7.46911 20.2131 7.28505 19.6789 6.88493 19.3049L0.515002 13.3826C-0.493303 12.4438 0.0628653 10.8106 1.45529 10.6198L10.258 9.39871C10.8101 9.32239 11.2903 8.9904 11.5383 8.5134L15.4755 0.904382C16.0997 -0.301461 17.9003 -0.301461 18.5245 0.904382Z" fill="#FEC54B"/>
</svg>
